<?xml version="1.0" encoding="UTF-8"?>
<svg xmlns="http://www.w3.org/2000/svg" xmlns:xlink="http://www.w3.org/1999/xlink" width="5000" height="3000" viewBox="0 0 5000 3000">

<path fill-rule="evenodd" fill="rgb(34.910583%, 17.30957%, 33.300781%)" fill-opacity="1" d="M 234 1340.191406 C 239.816406 1404.148438 344.230469 1563.820312 382.375 1614.351562 C 425.542969 1671.519531 474.722656 1723.878906 529.71875 1769.871094 C 563.785156 1798.359375 598.125 1822.851562 639.4375 1839.839844 C 735.117188 1879.199219 905.320312 1892.578125 886.925781 1741.769531 C 884.214844 1719.539062 878.976562 1697.898438 869.738281 1677.429688 C 811.078125 1547.421875 647.84375 1493.261719 544.570312 1406.039062 C 492.164062 1361.78125 319.601562 1145.019531 234 1340.191406 "/>
<path fill-rule="evenodd" fill="rgb(55.664062%, 36.108398%, 53.318787%)" fill-opacity="1" d="M 271.105469 1323.289062 C 293.605469 1369.300781 341.453125 1410.371094 376.566406 1446.359375 C 460.058594 1531.949219 547.308594 1611.390625 651.453125 1671.058594 C 670.847656 1682.171875 801.136719 1760.359375 814.210938 1711.929688 C 828.953125 1657.308594 749.675781 1606.269531 712.460938 1584.941406 C 626.230469 1535.511719 545.820312 1485.230469 471.808594 1418.070312 C 442.828125 1391.769531 365.535156 1274.929688 326.992188 1262.558594 C 292.988281 1251.648438 272.074219 1275.921875 271.105469 1323.289062 "/>
<path fill-rule="evenodd" fill="rgb(59.959412%, 76.171875%, 28.196716%)" fill-opacity="1" d="M 254.152344 1284.449219 C 253.835938 1275.789062 223.359375 1265.921875 252.222656 1238.300781 C 278.214844 1213.429688 278.972656 1265.578125 288.796875 1257.371094 C 296.339844 1251.070312 321.574219 1242.171875 345.320312 1245.140625 C 371.421875 1248.398438 384.550781 1259.621094 398.757812 1268.878906 C 432.894531 1291.148438 441.488281 1298.691406 460.734375 1305.820312 C 486.835938 1315.480469 424.726562 1335.640625 403.726562 1327.339844 C 396.042969 1324.300781 389.273438 1320.5 383.199219 1314.421875 C 382.453125 1313.671875 346.449219 1286.769531 345.253906 1288.71875 C 337.46875 1301.441406 405.5625 1416.960938 385.03125 1412.691406 C 365.738281 1408.671875 355.542969 1388.421875 329.855469 1374.210938 C 312.765625 1364.761719 303.324219 1366.769531 286.21875 1358.441406 C 280.332031 1355.570312 273.957031 1353.089844 268.789062 1348.738281 C 268.496094 1348.488281 263.007812 1343.109375 262.71875 1343.949219 C 262.382812 1344.949219 290.894531 1445.359375 294.445312 1451.648438 C 295.117188 1452.851562 302.765625 1462.859375 300.359375 1464.089844 C 288.210938 1470.320312 261.761719 1434.308594 256.84375 1426.121094 C 232.324219 1385.28125 222.070312 1319.359375 254.152344 1284.449219 "/>

</svg>
