<?xml version="1.0" encoding="UTF-8"?>
<svg xmlns="http://www.w3.org/2000/svg" xmlns:xlink="http://www.w3.org/1999/xlink" width="5000" height="3000" viewBox="0 0 5000 3000">

<path fill-rule="evenodd" fill="rgb(81.639099%, 20.800781%, 8.59375%)" fill-opacity="1" d="M 634.039062 399.050781 C 573.527344 421.050781 525.394531 462.308594 508.890625 498.070312 C 461.648438 600.429688 489.136719 707.199219 535.019531 771.738281 C 616.160156 885.890625 740.285156 907.878906 871.957031 887.261719 C 1049.128906 859.53125 1159.378906 668.601562 1067.238281 481.558594 C 1017.21875 380.039062 828.015625 328.511719 634.039062 399.050781 "/>
<path fill-rule="evenodd" fill="rgb(88.28125%, 41.992188%, 20.800781%)" fill-opacity="1" d="M 546.175781 528.75 C 550.09375 512.511719 591.765625 470.199219 606.011719 460.53125 C 609.90625 457.878906 629.664062 441.570312 635.15625 445.941406 C 644.375 453.269531 591.535156 505.46875 594.355469 512.621094 C 595.289062 514.988281 619.703125 504.300781 624.019531 505.46875 C 637.78125 509.179688 632.015625 532.558594 648.058594 532.359375 C 651.765625 532.308594 669.582031 518.671875 669.964844 519.539062 C 673.238281 526.941406 658.109375 555.820312 655.65625 563.390625 C 652.578125 572.890625 642.398438 579.75 639.1875 589.421875 C 634.046875 604.910156 632.191406 617.640625 629.558594 633.429688 C 627.550781 645.5 634.679688 666.28125 630.453125 677.910156 C 630.214844 678.558594 622.625 663.96875 621.40625 662.960938 C 612.914062 655.910156 598.960938 651.980469 588.484375 649.328125 C 556.742188 641.289062 537.589844 662.109375 527.039062 615.390625 C 523.640625 600.351562 521.535156 576.878906 546.175781 528.75 "/>
<path fill-rule="evenodd" fill="rgb(30.589294%, 50.976562%, 9.397888%)" fill-opacity="1" d="M 752.8125 472.359375 C 752.511719 470.699219 734.023438 476.53125 732.328125 476.578125 C 728.285156 476.671875 724.207031 475.648438 720.328125 474.640625 C 708.59375 471.589844 696.765625 467.199219 686.40625 460.859375 C 655.832031 442.148438 635.71875 409.71875 600.644531 397.671875 C 591.078125 394.390625 580.4375 392.800781 570.3125 393.140625 C 565.859375 393.289062 544.363281 402.648438 546.300781 392.980469 C 548.726562 380.839844 574.839844 373.308594 584.035156 371.050781 C 629.261719 359.929688 672.894531 386.160156 705.605469 414.46875 C 709.859375 418.160156 737.761719 447.339844 742.375 444.339844 C 746.972656 441.339844 744.691406 428.789062 744.371094 424.53125 C 743.359375 411.03125 735.519531 386.011719 742.1875 372.980469 C 749.128906 359.410156 787.105469 369 784.152344 383.929688 C 779.433594 407.769531 768.835938 411.710938 770.992188 443.121094 C 771.121094 444.949219 771.140625 459.78125 773.273438 460.691406 C 775.023438 461.441406 774.050781 456.960938 774.542969 455.121094 C 775.546875 451.359375 776.988281 447.75 778.628906 444.21875 C 783.535156 433.691406 789.722656 423.441406 797.332031 414.640625 C 812.796875 396.769531 835.109375 385.691406 858.472656 383.058594 C 865.199219 382.300781 878.351562 381.839844 882.859375 388.789062 C 883.574219 389.890625 861.757812 394.019531 859.363281 395.28125 C 845.976562 402.339844 832.433594 412.921875 823.273438 425 C 821.265625 427.648438 813.816406 438.46875 818.292969 441.851562 C 826.027344 447.679688 850.085938 432.371094 856.402344 429.109375 C 892.191406 410.640625 928.554688 399.589844 969.28125 403.601562 C 976.300781 404.289062 1003.578125 408.511719 1005.839844 418.449219 C 1006.078125 419.488281 998.355469 417.421875 997.828125 417.269531 C 992.214844 415.640625 986.613281 413.890625 980.746094 413.488281 C 964.78125 412.390625 948.382812 416.199219 933.496094 421.660156 C 904.078125 432.46875 876.394531 449.121094 845.898438 456.738281 C 816.960938 463.980469 782.179688 467.078125 752.8125 472.359375 "/>
<path fill-rule="evenodd" fill="rgb(54.492188%, 81.639099%, 34.910583%)" fill-opacity="1" d="M 755.5625 367.851562 C 737.683594 373.351562 743.183594 382.96875 754.886719 383.171875 C 761.511719 383.28125 769.261719 388.910156 775.953125 388.109375 C 784.824219 387.050781 783.066406 369.21875 755.5625 367.851562 "/>
<path fill-rule="evenodd" fill="rgb(88.28125%, 41.992188%, 20.800781%)" fill-opacity="1" d="M 683.699219 570.539062 C 683.175781 569.191406 672.699219 569.921875 666.804688 589.179688 C 664.109375 597.988281 657.925781 617.261719 656.195312 626.308594 C 653.140625 642.28125 649.925781 664.421875 659.992188 678.910156 C 666.730469 688.601562 684.996094 661.5 693.195312 663.269531 C 705.265625 665.878906 711.175781 683.839844 723.023438 688.148438 C 734.316406 692.261719 742.777344 677.078125 752.96875 675.929688 C 761.179688 675.011719 777.636719 684.109375 783.839844 678.871094 C 794.371094 669.96875 797.078125 584.050781 788.019531 581.511719 C 773.316406 577.378906 754.617188 612.660156 740.746094 617.28125 C 738.699219 617.96875 736.691406 617.929688 735.078125 616.359375 C 729.621094 611.03125 731.917969 600.28125 724.992188 595.660156 C 706.761719 583.5 698.078125 587.578125 683.699219 570.539062 "/>
<path fill-rule="evenodd" fill="rgb(73.631287%, 17.30957%, 12.889099%)" fill-opacity="1" d="M 553.585938 764.550781 C 574.027344 796.550781 635.003906 852.558594 670.425781 860.320312 C 971.242188 926.199219 1151.398438 737.789062 1056.511719 513.621094 C 1045.730469 488.160156 977.234375 402.21875 975.367188 445.199219 C 974.125 473.859375 992.460938 518.789062 1005.839844 542.5 C 1042.359375 607.179688 1034.429688 707.148438 976.742188 763.921875 C 880.050781 859.070312 690.691406 835.429688 553.585938 764.550781 "/>

</svg>
