<?xml version="1.0" encoding="utf-8"?>
<svg xmlns="http://www.w3.org/2000/svg" viewBox="0 0 500 500">
  <path fill-rule="evenodd" fill="rgb(81.639099%, 20.800781%, 8.59375%)" fill-opacity="1" d="M 155.516 38.487 C 95.005 60.487 46.872 101.745 30.368 137.507 C -16.874 239.866 10.614 346.636 56.497 411.175 C 137.638 525.327 261.763 547.315 393.434 526.698 C 570.606 498.968 680.856 308.038 588.716 120.995 C 538.696 19.476 349.493 -32.054 155.516 38.487" style="stroke-width: 1;"/>
  <path fill-rule="evenodd" fill="rgb(88.28125%, 41.992188%, 20.800781%)" fill-opacity="1" d="M 67.653 168.187 C 71.571 151.948 113.243 109.636 127.489 99.968 C 131.384 97.315 151.141 81.007 156.634 85.378 C 165.852 92.706 113.013 144.905 115.833 152.058 C 116.766 154.425 141.18 143.737 145.497 144.905 C 159.259 148.616 153.493 171.995 169.536 171.796 C 173.243 171.745 191.059 158.108 191.442 158.976 C 194.716 166.378 179.587 195.257 177.134 202.827 C 174.055 212.327 163.876 219.187 160.665 228.858 C 155.524 244.347 153.669 257.077 151.036 272.866 C 149.028 284.937 156.157 305.718 151.93 317.347 C 151.692 317.995 144.102 303.405 142.884 302.397 C 134.391 295.347 120.438 291.417 109.962 288.765 C 78.22 280.726 59.067 301.546 48.516 254.827 C 45.118 239.788 43.013 216.315 67.653 168.187" style="stroke-width: 1;"/>
  <path fill-rule="evenodd" fill="rgb(30.589294%, 50.976562%, 9.397888%)" fill-opacity="1" d="M 274.29 111.796 C 273.989 110.136 255.501 115.968 253.805 116.015 C 249.763 116.108 245.684 115.085 241.805 114.077 C 230.071 111.026 218.243 106.636 207.884 100.296 C 177.309 81.585 157.196 49.155 122.122 37.108 C 112.555 33.827 101.915 32.237 91.79 32.577 C 87.337 32.726 65.841 42.085 67.778 32.417 C 70.204 20.276 96.317 12.746 105.513 10.486 C 150.739 -0.634 194.372 25.597 227.083 53.905 C 231.337 57.597 259.239 86.776 263.852 83.776 C 268.45 80.776 266.169 68.226 265.848 63.968 C 264.837 50.468 256.997 25.448 263.665 12.416 C 270.606 -1.154 308.583 8.436 305.63 23.366 C 300.911 47.206 290.313 51.147 292.47 82.558 C 292.598 84.386 292.618 99.218 294.751 100.128 C 296.501 100.878 295.528 96.397 296.02 94.558 C 297.024 90.796 298.466 87.187 300.106 83.655 C 305.013 73.128 311.2 62.878 318.809 54.077 C 334.274 36.206 356.587 25.128 379.95 22.495 C 386.677 21.737 399.829 21.276 404.337 28.226 C 405.052 29.327 383.235 33.456 380.841 34.718 C 367.454 41.776 353.911 52.358 344.751 64.437 C 342.743 67.085 335.294 77.905 339.77 81.288 C 347.505 87.116 371.563 71.808 377.88 68.546 C 413.669 50.077 450.032 39.026 490.759 43.038 C 497.778 43.726 525.055 47.948 527.317 57.886 C 527.555 58.925 519.833 56.858 519.305 56.706 C 513.692 55.077 508.091 53.327 502.223 52.925 C 486.259 51.827 469.86 55.636 454.973 61.097 C 425.555 71.905 397.872 88.558 367.376 96.175 C 338.438 103.417 303.657 106.515 274.29 111.796" style="stroke-width: 1;"/>
  <path fill-rule="evenodd" fill="rgb(54.492188%, 81.639099%, 34.910583%)" fill-opacity="1" d="M 277.04 7.286 C 259.161 12.786 264.661 22.405 276.364 22.608 C 282.989 22.718 290.739 28.347 297.43 27.546 C 306.302 26.487 304.544 8.656 277.04 7.286" style="stroke-width: 1;"/>
  <path fill-rule="evenodd" fill="rgb(88.28125%, 41.992188%, 20.800781%)" fill-opacity="1" d="M 205.177 209.976 C 204.653 208.628 194.177 209.358 188.282 228.616 C 185.587 237.425 179.403 256.698 177.673 265.745 C 174.618 281.718 171.403 303.858 181.47 318.347 C 188.208 328.038 206.473 300.937 214.673 302.706 C 226.743 305.315 232.653 323.276 244.501 327.585 C 255.794 331.698 264.255 316.515 274.446 315.366 C 282.657 314.448 299.114 323.546 305.317 318.308 C 315.848 309.405 318.555 223.487 309.497 220.948 C 294.794 216.815 276.095 252.097 262.223 256.718 C 260.177 257.405 258.169 257.366 256.555 255.796 C 251.098 250.468 253.395 239.718 246.47 235.097 C 228.239 222.937 219.555 227.015 205.177 209.976" style="stroke-width: 1;"/>
  <path fill-rule="evenodd" fill="rgb(73.631287%, 17.30957%, 12.889099%)" fill-opacity="1" d="M 75.063 403.987 C 95.505 435.987 156.481 491.995 191.903 499.757 C 492.72 565.636 672.876 377.226 577.989 153.058 C 567.208 127.597 498.712 41.655 496.845 84.636 C 495.602 113.296 513.938 158.226 527.317 181.937 C 563.837 246.616 555.907 346.585 498.22 403.358 C 401.528 498.507 212.169 474.866 75.063 403.987" style="stroke-width: 1;"/>
</svg>