<?xml version="1.0" encoding="UTF-8" standalone="no"?>
<!-- Created with Inkscape (http://www.inkscape.org/) -->

<svg
   width="210mm"
   height="297mm"
   viewBox="0 0 210 297"
   version="1.1"
   id="svg1"
   inkscape:version="1.4.2 (f4327f4, 2025-05-13)"
   sodipodi:docname="carrot.svg"
   xmlns:inkscape="http://www.inkscape.org/namespaces/inkscape"
   xmlns:sodipodi="http://sodipodi.sourceforge.net/DTD/sodipodi-0.dtd"
   xmlns="http://www.w3.org/2000/svg"
   xmlns:svg="http://www.w3.org/2000/svg">
  <sodipodi:namedview
     id="namedview1"
     pagecolor="#ffffff"
     bordercolor="#000000"
     borderopacity="0.25"
     inkscape:showpageshadow="2"
     inkscape:pageopacity="0.0"
     inkscape:pagecheckerboard="0"
     inkscape:deskcolor="#d1d1d1"
     inkscape:document-units="mm"
     inkscape:zoom="0.71891835"
     inkscape:cx="396.42889"
     inkscape:cy="561.25984"
     inkscape:window-width="1920"
     inkscape:window-height="1046"
     inkscape:window-x="-11"
     inkscape:window-y="-11"
     inkscape:window-maximized="1"
     inkscape:current-layer="layer1" />
  <defs
     id="defs1" />
  <g
     inkscape:label="Layer 1"
     inkscape:groupmode="layer"
     id="layer1">
    <g
       id="g140"
       transform="matrix(0.26458333,0,0,0.26458333,-407.65326,-16.948566)">
      <path
         fill-rule="evenodd"
         fill="#2f7a28"
         fill-opacity="1"
         d="m 1995.25,495.82812 c -1.9219,8.40235 3.1719,-10.00781 3.4219,-12.02734 1.3867,-11.53125 0.1562,-23.17187 -2.1914,-34.49219 -3.1602,-15.21875 -6.9922,-29.28906 -16.3711,-41.92968 -1.8906,-2.55079 -18.1406,-18.75782 -14.8711,-22.5586 4.0312,-4.67187 39.9023,12.75 40.8906,11.75781 1.4414,-1.4375 -14.2578,-17.10937 -15.5078,-18.50781 -8.1523,-9.17187 -54.582,-49.33984 -51.293,-60.6289 1.9102,-6.55079 32.9024,4.41015 41.8907,-2.39063 4.4101,-3.33984 -5.2071,-18.22266 -6.4297,-22.58984 -6.2383,-22.19922 -6.1094,-54.42969 25.5898,-53.44141 26.9609,0.83984 33.25,35.53906 46.5703,52.71875 10.8789,14.03125 28.7617,-5.54687 39.3203,6.97266 17.9024,21.21875 -11.8984,47.66797 -16.9804,67.1289 -2.1797,8.37891 22.6992,5.78125 14.8711,22.94922 -14.5118,31.82031 -47.2696,53.15235 -63.9414,84.82031 -5.6172,10.67188 -11.2383,38.78907 -22.418,45.17969 -4.5313,2.60156 -4.0195,-9.27734 -3.8594,-10.71875"
         id="path88" />
      <path
         fill-rule="evenodd"
         fill="#257624"
         fill-opacity="1"
         d="m 1995.4492,530.07812 c -0.5898,-0.86718 14.9024,-11.63671 15.9024,-12.38671 17.9375,-13.28125 35.6875,-26.92969 52.9492,-41.08985 22.3086,-18.32031 37.789,-46.15234 60.9883,-62.54297 9.4297,-6.66797 22.832,-1.25781 33.7304,-5.05859 17.2305,-6.01172 30.1914,-21.89063 48.2618,-26.01172 8.1679,-1.85937 16.0703,2.72266 24.3281,1.91016 16.9609,-1.64844 36.7422,-16.67969 53.2695,-5.75782 17.3203,11.44922 3.0899,32.55079 -0.4297,47.16797 -2.8008,11.58203 8.5,18.53125 7.1406,28.26953 -1.3007,9.32032 -22.4687,13.80079 -28.9101,20.42188 -8.3203,8.55859 -4.9609,24.17187 -13.7891,32.03906 -11.3906,10.16016 -39.039,-1.60937 -52.0625,-2.80859 -14.25,-1.32031 -24.4375,12.14844 -38.8086,12.01953 -22.8007,-0.19922 -44.5703,-13.16016 -67.9179,-13.17188 -25.2422,-0.0195 -47.7813,13.27344 -69.1016,25.33204 -4.7812,2.69921 -21.1484,14.14843 -26.9805,10.67968"
         id="path89" />
      <path
         fill-rule="evenodd"
         fill="#4ca41a"
         fill-opacity="1"
         d="m 1997.8203,519.12891 c -1.6601,0.6914 5.4883,-8.91016 6.3789,-10.02735 5.7227,-7.24219 11.961,-14.08984 17.9727,-21.08984 17.707,-20.65235 33.8984,-42.73047 29.0898,-70.99219 -2.0429,-12 -8.9609,-27.51953 -5.3203,-39.71094 2.5977,-8.69922 15.6094,-9.75 15.7305,-18.41015 0.1875,-15.0586 -10.2813,-41.98828 2.75,-54.14844 10.039,-9.37109 23.6367,10.35156 32.1992,1.78906 10.707,-10.71094 16.6875,-42.59765 34.457,-44.57812 12.6133,-1.40235 14.8633,24.26953 22.9532,22.8789 17.4375,-3 25.3085,-26.94922 45.6093,-24.69922 15.3399,1.71094 10.8282,21.71094 20.8008,24.37891 21.75,5.82031 42.957,-30.14062 64.4805,-4.85937 15.0976,17.73046 9.0078,50.66796 -12.1133,61.01171 -9.4883,4.64844 -23.1875,1.32813 -31.5273,6.4375 -8.3829,5.12891 3.5898,19.17188 -1.0704,26.16016 -7.1718,10.75 -22.4492,1.69141 -30.9609,7.78906 -9.4219,6.76953 -6.0391,21.42188 -17.6211,26.3125 -30.1094,12.71875 -64.9375,-7.47265 -93.1094,11.57813 -22.3203,15.10156 -31.3984,40.78906 -47.9414,60.91015 -10.1562,12.3711 -23.6367,20.15235 -36.0976,29.94922"
         id="path90" />
      <path
         fill-rule="evenodd"
         fill="#de4b13"
         fill-opacity="1"
         d="m 1958.1211,460.33984 c -9.7305,-6.51953 -31.9219,-10.78906 -59.8516,0.44922 -33.8281,13.6211 -53.3398,42.96094 -74.3984,72.5625 -56.6016,79.57031 -105.6719,160.12891 -140.7227,229.51953 -25.6601,50.80078 -37.0898,67.20703 -67.289,115.1875 -16.7578,26.63282 -82.211,114.0625 -38.75,139.12111 14.1992,8.1992 35.6719,3.332 50.4219,-0.7813 45.457,-12.6484 86.1093,-43.80856 122.1679,-73.00778 76.2813,-61.76953 150.1289,-123.3789 221.25,-191.10937 34.5625,-32.90234 76.2813,-65.83203 99.8594,-108.08984 45.6406,-81.79297 -31.1875,-168.65235 -112.6875,-183.85157"
         id="path91" />
      <path
         fill-rule="evenodd"
         fill="#f67929"
         fill-opacity="1"
         d="m 1931.8398,468.46094 c -34.039,-0.5 -79.6796,74.73828 -95.6796,96.27734 -43.0313,57.91016 -80.3321,116.55078 -106.9805,167.05078 -19.5,36.98047 -28.1914,48.92188 -51.1484,83.85156 -12.7422,19.37891 -99.2305,124.64844 -66.2032,142.89063 10.8008,5.96875 31.4805,27.57812 53.5235,12.79687 29.707,-19.91796 90.957,-48.63671 118.3789,-69.89843 57.9804,-44.96094 117.8203,-111.21094 171.8906,-160.50782 26.2695,-23.95312 45.418,-67.89062 68.2578,-95.5 56.6992,-68.57031 34.1406,-175.13281 -92.0391,-176.96093"
         id="path92" />
      <path
         fill-rule="evenodd"
         fill="#fb9d45"
         fill-opacity="1"
         d="m 1945.1914,492.89062 c -24.4609,13.01954 -46.4219,46.48047 -64.3125,66.78907 -54.1992,61.55859 -99.8672,130.26953 -144.5273,198.89062 -23.4102,35.98047 -47.5508,72.03125 -68.0118,109.82031 -1.1093,2.0586 -17.9804,35.5 -7.2187,32.89063 28.3398,-6.85156 73.3672,-64.5 91.5898,-85.58984 67.4883,-78.15235 132.8907,-157.8711 198.6094,-237.5 4.5781,-5.55079 9.1992,-11.07032 13.6485,-16.73047 10.8203,-13.76172 43.0703,-76.30078 -19.7774,-68.57032"
         id="path93" />
      <path
         fill-rule="evenodd"
         fill="#de4b13"
         fill-opacity="1"
         d="m 1699.6484,971.32812 c -5.9492,-6.1875 2.9102,-20.07812 -3.6992,-25.59765 -3.1406,-2.6211 -48.9179,-40.03906 -19.3203,-24.51953 32.9414,17.27734 34.6406,38.07812 63.2422,14.75781 4.707,-3.83984 12.918,-9.98828 13.3789,-16.73047 0.7305,-10.78906 -44.1719,-40.03906 -52.7109,-43.58984 -4.9805,-2.07032 -10,-4.08985 -14.8477,-6.45703 -0.5195,-0.25 -8.8906,-5.47266 -8.0312,-5.75 5.0586,-1.61329 19.4101,5.91796 24.0507,7.59765 40.3086,14.63281 51.3789,59.07031 86.25,21.55078 4.6172,-4.98047 11.6172,-10.44922 14.4805,-16.73047 6.7695,-14.89843 -52.3516,-46.25 -61.5508,-52.07812 -1.0898,-0.69141 -19.1718,-12.8125 -16.2422,-15.15234 1.5118,-1.20704 30.75,15.12109 33.8204,16.90234 42.3398,24.62891 46.3203,58.35937 80.7421,21.85937 4.0977,-4.35156 8.1993,-9.07031 11.3985,-14.14062 15.6289,-24.64844 -31.4492,-54.12891 -46.7696,-63.07031 -1.6015,-0.92969 -27.8398,-16.58985 -23.8906,-19.39844 4.4024,-3.12109 25.1211,12.48828 28.75,14.44922 13.9024,7.51953 22.6719,16.30078 35.7422,25.28906 25.4492,17.51172 31.9375,20.87109 50.1367,-3.75 19.5821,-26.5 -26.5898,-64.53906 -42.6679,-80.25 -2,-1.94922 -21.1289,-16.98047 -20.1993,-19.76953 1.1485,-3.46094 16.9102,4.23828 19.6797,6.62891 6.0782,5.26171 25.2383,23.73046 31.0782,29.26171 16.7617,15.84766 28.7109,42.35938 51.2031,27.42969 12.2187,-8.10937 54.3398,-40.58984 49.207,-56.37109 -6.1875,-19.02735 -52.9375,-35.9375 -67.4883,-47.85938 -1.1289,-0.92968 -22.3789,-27.6914 -18.5508,-29.9414 5.3399,-3.14844 23.4219,13.86328 26.8711,16.60156 20.9102,16.57031 63.8086,61.78906 88.9297,39.89844 5.8985,-5.14844 12.8399,-11.09766 16.168,-18.35938 8.8906,-19.39062 -39.6289,-67.64062 -50.8672,-77.77734 -1.4023,-1.26172 -24.8203,-22.01172 -18.6601,-21.86328 13.4296,0.33984 40.8398,36.92187 51.4804,43.78125 13.2578,8.53906 38.0469,19.10937 41.9688,36.58203 4.4687,19.96875 -20.1289,41.34765 -32.2813,53.5 -41.5,41.5 -85.5273,80.04687 -129.2187,119.19922 -18.4922,16.55859 -36.3203,33.78906 -54.6407,50.53906 -22.8593,20.91016 -46.1484,41.33984 -69.6601,61.51953"
         id="path94" />
    </g>
  </g>
</svg>
