<?xml version="1.0" encoding="UTF-8"?>
<svg xmlns="http://www.w3.org/2000/svg"
    xmlns:xlink="http://www.w3.org/1999/xlink" width="550" height="300" viewBox="0 0 5000 3000">

    <path fill-rule="evenodd" fill="rgb(30.200195%, 60.742188%, 7.102966%)" fill-opacity="1" d="M 876.375 2484.644531 C 876.460938 2445.90625 792.984375 2454.460938 788.1875 2464.972656 C 774.433594 2495.121094 782.628906 2570.675781 773.121094 2602.5 C 760.1875 2645.777344 706.628906 2733.367188 696.433594 2752.175781 C 671.070312 2798.96875 810.050781 2871.644531 837.828125 2837.894531 C 838.183594 2837.460938 838.90625 2837.558594 839.40625 2837.300781 C 842.363281 2835.792969 950.746094 2693.226562 970.503906 2671.261719 C 996.503906 2642.359375 1007.101562 2611.550781 1043.859375 2597.800781 C 1046.230469 2596.914062 1086.550781 2586.453125 1086.550781 2585.546875 C 1086.550781 2583.847656 1070.859375 2574.449219 1069.089844 2572.960938 C 1027.660156 2538.070312 980.480469 2596.011719 948.386719 2620.992188 C 944.726562 2623.84375 900.367188 2657.359375 899.890625 2654.265625 C 896.007812 2629.027344 1003.191406 2532.558594 987.652344 2518.671875 C 979.953125 2511.792969 963.304688 2512.367188 953.722656 2510.105469 C 933.476562 2505.332031 935.777344 2513.464844 914.882812 2514.902344 C 882.394531 2517.132812 824.035156 2645.691406 824.085938 2642.800781 C 824.4375 2622.441406 876.257812 2538.335938 876.375 2484.644531 "/>
    <path fill-rule="evenodd" fill="rgb(70.117188%, 82.617188%, 39.208984%)" fill-opacity="1" d="M 806.265625 2552.1875 C 803.636719 2550.335938 806.339844 2558.613281 806.226562 2561.824219 C 805.992188 2568.558594 804.609375 2575.242188 803.175781 2581.804688 C 798.449219 2603.417969 792.359375 2624.777344 784.796875 2645.574219 C 773.347656 2677.054688 755.824219 2705.90625 738.449219 2734.382812 C 734.691406 2740.546875 719.910156 2758.738281 724.480469 2766.605469 C 729.480469 2775.21875 740.265625 2764.777344 744.085938 2760.699219 C 757.316406 2746.5625 765.152344 2728.03125 773.90625 2710.996094 C 782.5625 2694.152344 790.699219 2677.347656 797.339844 2659.59375 C 808.410156 2629.992188 818.027344 2598.355469 810.761719 2566.703125 "/>
    <path fill-rule="evenodd" fill="rgb(70.117188%, 82.617188%, 39.208984%)" fill-opacity="1" d="M 854.214844 2620.289062 C 854.023438 2619.605469 847.445312 2629.371094 846.945312 2630.195312 C 842.21875 2637.972656 837.609375 2645.835938 833.085938 2653.730469 C 820.601562 2675.53125 808.15625 2697.914062 800.171875 2721.8125 C 799.214844 2724.679688 791.652344 2742.054688 797.414062 2744.199219 C 804.703125 2746.910156 818.300781 2728.523438 821.953125 2724.367188 C 840.523438 2703.234375 863.644531 2676.230469 862.640625 2646.324219 "/>
    <path fill-rule="evenodd" fill="rgb(70.117188%, 82.617188%, 39.208984%)" fill-opacity="1" d="M 972.410156 2645.140625 C 943.117188 2644.371094 900.808594 2689.90625 893.882812 2712.730469 C 889.648438 2726.683594 875.324219 2734.65625 867.867188 2747.183594 C 867.460938 2747.867188 861.054688 2758.132812 863.058594 2758.75 C 867.382812 2760.089844 888.960938 2737.558594 892.152344 2734.140625 C 911.105469 2713.832031 966.242188 2674.933594 975.203125 2651.8125 "/>
    <path fill-rule="evenodd" fill="rgb(23.094177%, 36.497498%, 15.306091%)" fill-opacity="1" d="M 928.304688 2183.546875 C 908.902344 2158.035156 837.171875 2170.460938 805.539062 2191.089844 C 758.636719 2221.679688 768.410156 2277.730469 768.410156 2277.730469 C 768.410156 2277.730469 704.703125 2267.863281 684.519531 2277.730469 C 622.632812 2307.984375 623.734375 2362.726562 649.765625 2415.101562 C 670.203125 2456.222656 710.527344 2481.359375 745.183594 2508.988281 C 772.167969 2530.496094 797.703125 2557.71875 829.46875 2572.144531 C 864.855469 2588.222656 905.234375 2590.183594 939.964844 2608.351562 C 960.796875 2619.246094 977.886719 2636.082031 999.136719 2646.089844 C 1015.769531 2653.921875 1035.121094 2655.558594 1051.121094 2664.496094 C 1074.738281 2677.691406 1089.160156 2695.195312 1117.078125 2702.890625 C 1158.789062 2714.386719 1204.058594 2704.46875 1232.621094 2670.195312 C 1254.921875 2643.429688 1239.789062 2619.617188 1248.371094 2588.535156 C 1255.761719 2561.757812 1242.871094 2521.148438 1251.121094 2497.769531 C 1266.359375 2454.601562 1284.550781 2422.992188 1249.75 2364.371094 C 1223.621094 2320.363281 1166.25 2321.304688 1168.609375 2302.484375 C 1178.230469 2225.472656 1139.789062 2170.402344 1039.328125 2155.332031 C 956.820312 2142.957031 940.316406 2199.339844 928.304688 2183.546875 "/>
    <path fill-rule="evenodd" fill="rgb(49.804688%, 66.209412%, 33.300781%)" fill-opacity="1" d="M 894.894531 2363.449219 C 800.835938 2366.953125 785.359375 2413.886719 778.335938 2443.554688 C 757.484375 2531.625 937.3125 2569.273438 987.835938 2532.234375 C 1067.730469 2473.664062 959.914062 2361.027344 894.894531 2363.449219 "/>
    <path fill-rule="evenodd" fill="rgb(49.804688%, 66.209412%, 33.300781%)" fill-opacity="1" d="M 765.207031 2403.597656 C 762.386719 2403.648438 768.578125 2399.019531 769.703125 2396.433594 C 771.890625 2391.417969 773.355469 2386.074219 774.328125 2380.699219 C 777.25 2364.535156 777.585938 2346.613281 774.433594 2330.472656 C 767.796875 2296.464844 735.835938 2278.507812 704.832031 2294.839844 C 606.832031 2346.449219 688.140625 2475.273438 759.53125 2410.679688 "/>
    <path fill-rule="evenodd" fill="rgb(49.804688%, 66.209412%, 33.300781%)" fill-opacity="1" d="M 814.972656 2205.160156 C 769.785156 2269.480469 868.011719 2374.660156 911.566406 2344.753906 C 970.230469 2304.476562 891.554688 2151.382812 814.972656 2205.160156 "/>
    <path fill-rule="evenodd" fill="rgb(49.804688%, 66.209412%, 33.300781%)" fill-opacity="1" d="M 945.765625 2211.003906 C 945.296875 2209.527344 944.386719 2217.667969 944.410156 2218.136719 C 944.867188 2227.484375 947.683594 2236.625 949.300781 2245.789062 C 951.828125 2260.125 959.195312 2325.757812 982.570312 2320.839844 C 998.683594 2317.449219 1011.46875 2276.839844 1018.78125 2263.945312 C 1028.679688 2246.472656 1087.308594 2194.855469 1048.160156 2184.382812 C 1026.378906 2178.554688 1004.960938 2181.703125 984.359375 2190.539062 "/>
    <path fill-rule="evenodd" fill="rgb(49.804688%, 66.209412%, 33.300781%)" fill-opacity="1" d="M 1098.679688 2223.699219 C 1068.519531 2214.703125 982.472656 2344.703125 1030.378906 2385.421875 C 1058.109375 2408.988281 1143.140625 2397.539062 1158.320312 2361.054688 C 1173.449219 2324.703125 1149.429688 2275.113281 1122.910156 2250.601562 "/>
    <path fill-rule="evenodd" fill="rgb(49.804688%, 66.209412%, 33.300781%)" fill-opacity="1" d="M 1238.039062 2410.714844 C 1212.960938 2358.453125 1103.671875 2419.621094 1070.261719 2439.59375 C 1021.78125 2468.574219 1060.578125 2519.332031 1087.320312 2537.421875 C 1130.628906 2566.714844 1284.441406 2507.390625 1238.039062 2410.714844 "/>
    <path fill-rule="evenodd" fill="rgb(49.804688%, 66.209412%, 33.300781%)" fill-opacity="1" d="M 1141.011719 2585.476562 C 1090.621094 2541.035156 972.015625 2589.144531 1077.699219 2649.765625 C 1163.5 2698.976562 1289.171875 2584.511719 1158.871094 2582.503906 "/>
</svg>
