<?xml version="1.0" encoding="UTF-8"?>
<svg xmlns="http://www.w3.org/2000/svg" xmlns:xlink="http://www.w3.org/1999/xlink" width="2500" height="2500" viewBox="0 0 2500 2500">

<path fill-rule="nonzero" fill="rgb(77.34375%, 58.006287%, 25.488281%)" fill-opacity="1" d="M 152.949219 2211 C 153.699219 2210.589844 154.570312 2210.421875 155.566406 2210.492188 C 155.660156 2210.492188 155.96875 2210.523438 156.496094 2210.585938 C 156.710938 2210.617188 156.929688 2210.652344 157.152344 2210.699219 C 157.378906 2210.742188 157.609375 2210.789062 157.84375 2210.847656 L 159.816406 2211.355469 Z M 1122.359375 1327.730469 L 1122.800781 1323.71875 C 1251.859375 1336.519531 1360.878906 1377.710938 1449.859375 1447.300781 C 1524.308594 1523.34375 1556.199219 1598.953125 1545.53125 1674.132812 L 1542.160156 1599.425781 C 1565.160156 1618.769531 1575.898438 1649.441406 1574.371094 1691.4375 C 1574.140625 1743.945312 1528.28125 1811.0625 1436.789062 1892.777344 C 1376.640625 1954.355469 1310.480469 1993.539062 1238.320312 2010.332031 C 1106.171875 2030.695312 1031.910156 2040.492188 1015.550781 2039.726562 C 773.542969 2055.863281 650.652344 2059.175781 646.875 2049.671875 C 601.917969 2044.53125 555.96875 2028.390625 509.019531 2001.253906 L 471.644531 1979.824219 L 427.179688 1942.597656 C 453.523438 1961.03125 468.375 1973.492188 471.730469 1979.984375 C 479.558594 1992.40625 476.976562 1997.796875 463.992188 1996.152344 C 456.210938 1995.953125 438.90625 1988.253906 412.070312 1973.046875 L 381.128906 1927.921875 L 355.230469 1913.070312 C 340.882812 1903.582031 335.980469 1892.285156 340.523438 1879.191406 L 341.296875 1878.996094 L 376.597656 1893.21875 C 318.164062 1886.046875 294.792969 1823.132812 306.480469 1704.472656 C 335.824219 1599.226562 385.207031 1530.820312 454.640625 1499.261719 L 733.335938 1344.648438 C 814.792969 1312.078125 915.363281 1301.921875 1035.050781 1314.179688 C 1167.988281 1329.511719 1269.921875 1362.898438 1340.839844 1414.351562 L 1122.359375 1327.730469 "/>
<path fill-rule="nonzero" fill="rgb(61.914062%, 43.138123%, 20.384216%)" fill-opacity="1" d="M 1558.421875 1660.171875 C 1556.128906 1672.59375 1547.839844 1694.1875 1533.550781 1724.949219 C 1520.859375 1751.707031 1506.160156 1774.851562 1489.441406 1794.382812 C 1477.070312 1807.496094 1466.648438 1817.925781 1458.171875 1825.679688 C 1452.671875 1827.003906 1448.570312 1825.542969 1445.878906 1821.300781 C 1445.210938 1819.097656 1445.441406 1815.164062 1446.578125 1809.507812 C 1457.511719 1773.464844 1463.25 1748.21875 1463.808594 1733.769531 C 1465.359375 1718.503906 1462.800781 1697.609375 1456.121094 1671.078125 C 1453.949219 1706.417969 1438.699219 1746.851562 1410.378906 1792.378906 C 1384.058594 1833.550781 1355.859375 1859.597656 1325.78125 1870.511719 C 1324.179688 1869.792969 1323.890625 1866.980469 1324.921875 1862.074219 C 1334.769531 1825.453125 1340.738281 1799.113281 1342.839844 1783.050781 C 1344.941406 1770.40625 1346.570312 1750.5625 1347.730469 1723.515625 C 1342.53125 1747.484375 1337.859375 1763.75 1333.699219 1772.3125 L 1316.609375 1808.5 C 1303.488281 1826.65625 1280.910156 1850.820312 1248.839844 1880.988281 C 1213.351562 1910.128906 1179.191406 1927.773438 1146.378906 1933.914062 C 1141.890625 1932.308594 1142.871094 1925.664062 1149.320312 1913.984375 C 1185.03125 1866.304688 1206.398438 1834.414062 1213.421875 1818.316406 C 1223.371094 1798.660156 1232.761719 1774.113281 1241.578125 1744.675781 C 1224.550781 1773.988281 1211.539062 1793.839844 1202.539062 1804.230469 C 1191.03125 1819.070312 1170.738281 1841.886719 1141.671875 1872.683594 C 1116.78125 1895.164062 1088.621094 1916.925781 1057.179688 1937.976562 C 1027.078125 1956.699219 1013.261719 1959.441406 1015.71875 1946.199219 C 1017.128906 1940.785156 1020.269531 1934.304688 1025.140625 1926.753906 C 1054.628906 1888.21875 1073.070312 1861.058594 1080.449219 1845.273438 C 1032.609375 1888.558594 1003.460938 1913.550781 993 1920.246094 L 939.539062 1958.316406 C 898.820312 1980.84375 864.148438 1994.597656 835.519531 1999.578125 C 831.625 1999.246094 832.386719 1995.957031 837.800781 1989.710938 C 876.179688 1952.71875 900.492188 1927.210938 910.734375 1913.175781 C 868.355469 1941.90625 835.257812 1960.601562 811.445312 1969.257812 C 796.621094 1975.289062 776.078125 1982.460938 749.8125 1990.769531 C 735.546875 1992.316406 725.925781 1992.703125 720.953125 1991.925781 C 719.113281 1991.105469 720.28125 1989.652344 724.457031 1987.554688 C 770.453125 1965.546875 793.75 1953.269531 794.34375 1950.71875 C 739.851562 1969.234375 687.835938 1979.246094 638.300781 1980.753906 C 633.835938 1981.066406 633.03125 1980.5 635.894531 1979.058594 C 645.269531 1975.273438 664.195312 1965.65625 692.675781 1950.214844 C 664.449219 1959.703125 616.0625 1966.074219 547.519531 1969.324219 C 539.324219 1969.625 531.050781 1969.679688 522.699219 1969.488281 L 524.789062 1968.867188 C 499.527344 1969.722656 468.207031 1960.269531 430.828125 1940.507812 C 419.261719 1933.679688 408.050781 1925.242188 397.195312 1915.1875 C 367.558594 1886.699219 348.953125 1867.816406 341.375 1858.535156 C 339.675781 1856.914062 338.355469 1856.238281 337.421875 1856.503906 C 333.929688 1858.617188 338.285156 1869.59375 350.492188 1889.425781 C 357.976562 1901.878906 368.703125 1914.796875 382.667969 1928.183594 C 396.78125 1942.019531 407.679688 1952.074219 415.359375 1958.347656 C 415.183594 1965.734375 430.328125 1977.949219 460.789062 1994.988281 C 496.347656 2013.28125 529.535156 2026.292969 560.351562 2034.023438 C 596.511719 2042.457031 632.191406 2045.914062 667.386719 2044.398438 C 669.109375 2044.964844 670.90625 2045.53125 672.777344 2046.097656 C 699.320312 2053.410156 727.023438 2057.109375 755.878906 2057.195312 C 774.964844 2056.902344 793.296875 2055.78125 810.871094 2053.839844 C 818.007812 2055.929688 827.925781 2056.753906 840.621094 2056.316406 L 847.648438 2054.089844 C 853.09375 2054.847656 859.800781 2055.367188 867.773438 2055.644531 C 870.914062 2055.644531 874.132812 2055.539062 877.421875 2055.324219 C 878.074219 2060.722656 879.546875 2064.109375 881.835938 2065.480469 C 886.914062 2069.582031 892.132812 2071.652344 897.5 2071.691406 C 899.550781 2071.746094 902.132812 2071.683594 905.238281 2071.511719 C 920.8125 2069.675781 930.15625 2068.640625 933.269531 2068.410156 C 950.589844 2067.246094 963.878906 2066.539062 973.140625 2066.28125 C 987.347656 2064.535156 995.609375 2063.578125 997.925781 2063.410156 C 1011.988281 2063.394531 1020.890625 2062.957031 1024.621094 2062.09375 C 1037.441406 2059.4375 1049.910156 2055.875 1062 2051.40625 C 1082.421875 2042.894531 1097.050781 2036.03125 1105.890625 2030.816406 C 1117.648438 2027.613281 1127.878906 2023.765625 1136.601562 2019.28125 L 1115.75 2015 C 1121.558594 2012.53125 1127.179688 2010.078125 1132.621094 2007.632812 C 1132.390625 2008.007812 1132.21875 2008.347656 1132.109375 2008.660156 C 1135.621094 2017.25 1154.21875 2017.792969 1187.890625 2010.285156 C 1216.011719 2001.191406 1244.578125 1987.605469 1273.589844 1969.523438 C 1283.988281 1963.003906 1293.890625 1956.351562 1303.289062 1949.566406 C 1300.101562 1953.257812 1296.851562 1956.988281 1293.550781 1960.761719 C 1298.390625 1969.78125 1322.011719 1963.957031 1364.421875 1943.285156 C 1402.101562 1922.257812 1434.949219 1898.605469 1462.949219 1872.335938 C 1513.101562 1825.066406 1544.980469 1773.007812 1558.578125 1716.152344 L 1558.421875 1660.171875 C 1559.308594 1655.359375 1559.300781 1651.925781 1558.390625 1649.867188 Z M 488.222656 1871.773438 C 487.019531 1869.890625 486.96875 1864.390625 488.074219 1855.269531 C 488.980469 1849.246094 490.542969 1844.171875 492.765625 1840.046875 C 495.6875 1834.671875 498.605469 1831.367188 501.527344 1830.140625 C 505.308594 1828.191406 507.988281 1828.761719 509.566406 1831.851562 C 510.691406 1834.230469 511.484375 1838.335938 511.941406 1844.160156 C 512.089844 1846.324219 512.148438 1848.398438 512.128906 1850.382812 C 511.734375 1861.125 511.617188 1867.890625 511.78125 1870.675781 C 511.859375 1874.367188 512.359375 1878.789062 513.285156 1883.933594 C 514.089844 1888.207031 515.273438 1892.574219 516.839844 1897.042969 C 517.421875 1899.1875 520.335938 1906.203125 525.585938 1918.09375 C 526.238281 1919.792969 526.488281 1920.984375 526.324219 1921.675781 C 525.652344 1925.800781 521.328125 1924.1875 513.347656 1916.835938 C 506.65625 1910.210938 502.519531 1903.402344 500.941406 1896.414062 Z M 723.414062 1805.53125 C 723.222656 1802.386719 724.269531 1799.492188 726.546875 1796.851562 C 728.71875 1794.703125 731.210938 1793.835938 734.023438 1794.238281 C 740.585938 1795.675781 745.3125 1800.558594 748.207031 1808.878906 C 750.382812 1815.363281 750.625 1822.832031 748.9375 1831.289062 C 747.933594 1836.425781 746.691406 1840.773438 745.210938 1844.335938 C 743.148438 1849.722656 741.292969 1853.167969 739.640625 1854.667969 Z M 892.464844 1860.625 C 933.023438 1830.773438 968.289062 1778.390625 998.265625 1703.476562 C 1006.761719 1676.234375 1009.300781 1651.765625 1005.878906 1630.0625 C 1003.609375 1617.820312 999.925781 1608.246094 994.835938 1601.339844 C 987.992188 1592.410156 982.839844 1590.09375 979.375 1594.390625 C 977.675781 1596.609375 976.695312 1601.457031 976.441406 1608.929688 C 976.132812 1612.335938 976.105469 1629.703125 976.367188 1661.03125 C 976.125 1671.15625 975.652344 1679.636719 974.953125 1686.464844 C 973.933594 1698.996094 971.183594 1713.546875 966.707031 1730.105469 C 960.703125 1751.734375 954.671875 1768.238281 948.609375 1779.621094 C 944.542969 1788.351562 933.914062 1804.042969 916.722656 1826.695312 Z M 489.558594 1672.238281 C 488.160156 1668.960938 487.746094 1665.367188 488.3125 1661.464844 C 488.6875 1658.371094 490.105469 1654.976562 492.570312 1651.285156 C 494.859375 1648.0625 496.960938 1646.65625 498.867188 1647.070312 C 500.957031 1647.222656 502.359375 1649.183594 503.074219 1652.949219 C 503.605469 1656.488281 503.5 1660.910156 502.757812 1666.21875 C 502.46875 1668.300781 502.191406 1670.136719 501.925781 1671.730469 C 500.140625 1681.683594 499.125 1687.710938 498.875 1689.8125 C 498.75 1690.625 498.535156 1692.511719 498.234375 1695.480469 L 497.214844 1707.050781 C 496.652344 1708.898438 496.160156 1708.980469 495.734375 1707.300781 Z M 1377.710938 1754.910156 C 1375.550781 1751.957031 1373.421875 1746.238281 1371.320312 1737.753906 C 1370.398438 1731.90625 1370.671875 1727.902344 1372.148438 1725.75 C 1373.691406 1724.429688 1376.121094 1726.757812 1379.441406 1732.730469 C 1381.441406 1736.386719 1382.941406 1741.917969 1383.949219 1749.328125 C 1384.308594 1753.234375 1384.199219 1757.171875 1383.621094 1761.132812 C 1383.089844 1764.449219 1382.449219 1767.609375 1381.699219 1770.609375 C 1381.28125 1772.242188 1380.859375 1773.910156 1380.449219 1775.621094 C 1380.351562 1775.960938 1380.140625 1776.261719 1379.828125 1776.535156 Z M 501.5625 1532.78125 C 487.566406 1533.472656 471.453125 1539.347656 453.214844 1550.402344 C 427.226562 1565.839844 411.175781 1579.019531 405.050781 1589.9375 Z M 808.417969 1608.742188 C 807.417969 1606.046875 807.355469 1599.09375 808.230469 1587.886719 C 808.929688 1579.070312 809.988281 1574.398438 811.40625 1573.863281 C 814.351562 1572.019531 817.246094 1573.101562 820.089844 1577.109375 C 823.976562 1582.988281 826.128906 1589.160156 826.535156 1595.621094 C 826.4375 1602.925781 824.757812 1609.628906 821.5 1615.734375 C 816.867188 1624.078125 812.644531 1628.847656 808.820312 1630.03125 Z M 1259.019531 1559.714844 C 1258.328125 1559.308594 1257.550781 1557.859375 1256.679688 1555.355469 C 1251.289062 1537.8125 1245.800781 1521.519531 1240.210938 1506.472656 C 1237.410156 1497.648438 1235.339844 1490.191406 1233.988281 1484.109375 C 1233.921875 1481.351562 1235.480469 1481.621094 1238.671875 1484.898438 C 1243.070312 1489.53125 1246.640625 1494.300781 1249.359375 1499.199219 C 1255.988281 1511.945312 1261.378906 1525.371094 1265.519531 1539.480469 C 1271.460938 1562.824219 1271.640625 1585.28125 1266.078125 1606.839844 Z M 635.472656 1489.699219 C 632.421875 1484.050781 631.417969 1478.789062 632.464844 1473.929688 C 633.957031 1468.410156 637.070312 1465.171875 641.808594 1464.199219 C 651.339844 1462.890625 656.667969 1469.539062 657.785156 1484.148438 C 658.402344 1492.019531 656.734375 1500.234375 652.78125 1508.796875 C 649.292969 1517.089844 644.152344 1524.691406 637.359375 1531.597656 Z M 1350.480469 1556.214844 L 1346.03125 1535.960938 C 1342.589844 1522.035156 1339.238281 1509.328125 1335.96875 1497.839844 C 1335.128906 1494.410156 1334.679688 1491.949219 1334.621094 1490.46875 C 1334.480469 1487.558594 1335.5 1485.898438 1337.679688 1485.5 C 1340.71875 1486.011719 1344.089844 1487.648438 1347.78125 1490.410156 C 1357.269531 1497.988281 1362.789062 1507.210938 1364.351562 1518.078125 C 1365.121094 1523.097656 1365.070312 1528.390625 1364.199219 1533.945312 C 1362.390625 1546.140625 1360.421875 1555.507812 1358.28125 1562.039062 Z M 1028.820312 1438.53125 C 1029.75 1461.589844 1033.578125 1478.390625 1040.289062 1488.921875 C 1043.769531 1494.980469 1047.828125 1498.300781 1052.449219 1498.878906 C 1056.539062 1499.179688 1059.03125 1496.210938 1059.929688 1489.96875 C 1062.179688 1470.839844 1059.191406 1454.800781 1050.96875 1441.871094 C 1049.710938 1439.539062 1045.53125 1434.371094 1038.441406 1426.351562 C 1037.710938 1425.648438 1035.300781 1420.71875 1031.210938 1411.558594 C 1030.429688 1410.109375 1029.71875 1409.308594 1029.089844 1409.179688 C 1028.089844 1408.511719 1027.511719 1412.210938 1027.351562 1420.289062 C 1027.28125 1426.550781 1027.660156 1433.289062 1028.488281 1440.519531 Z M 880.328125 1324.078125 C 890.816406 1327.789062 899.109375 1334.101562 905.203125 1342.980469 C 919.855469 1366.140625 927.402344 1382.121094 927.855469 1390.929688 C 927.308594 1390.941406 926.460938 1390.179688 925.308594 1388.648438 C 913.765625 1371.878906 904.828125 1360.21875 898.507812 1353.648438 C 890.347656 1344.851562 880.164062 1335.550781 867.957031 1325.75 L 880.328125 1324.078125 "/>
<path fill-rule="nonzero" fill="rgb(0%, 0%, 0%)" fill-opacity="1" d="M 741.433594 2060.019531 L 804.101562 2049.351562 L 809.433594 2083.804688 Z M 741.433594 2060.019531 "/>
<path fill-rule="nonzero" fill="rgb(0%, 0%, 0%)" fill-opacity="1" d="M 337.605469 1604.90625 C 340.5 1598.90625 344.421875 1591 347.324219 1585.957031 C 372.398438 1542.421875 417.105469 1513.824219 455.773438 1488.820312 L 462.496094 1484.460938 L 477.722656 1474.578125 C 572.054688 1413.371094 671.503906 1349.789062 782.714844 1320.898438 C 878.265625 1296.078125 981.671875 1289.949219 1083.371094 1301.171875 C 1207.519531 1314.878906 1329.550781 1354.5 1432 1418.101562 C 1517 1470.871094 1579.320312 1581.113281 1575.429688 1681.699219 C 1569.890625 1825 1419.050781 1939.421875 1294.121094 1991.9375 C 1116.261719 2066.707031 910.398438 2098.757812 715.316406 2077.226562 C 659.730469 2071.089844 605.003906 2060.605469 552.003906 2045.492188 C 448.136719 2015.878906 325.042969 1943.6875 294.605469 1833.804688 C 280.925781 1784.421875 292.421875 1730.761719 306.355469 1685.34375 C 310.445312 1672.015625 318.007812 1652.21875 324.105469 1636.808594 L 333.472656 1613.648438 C 333.496094 1613.589844 329.339844 1623.589844 324.105469 1636.808594 L 324.054688 1636.929688 L 324.96875 1633.957031 C 325.195312 1633.234375 325.425781 1632.511719 325.660156 1631.789062 C 325.921875 1630.992188 326.183594 1630.195312 326.453125 1629.402344 C 326.71875 1628.632812 326.984375 1627.859375 327.257812 1627.09375 C 327.523438 1626.34375 327.796875 1625.597656 328.074219 1624.851562 L 328.902344 1622.691406 L 329.742188 1620.621094 L 330.589844 1618.640625 L 331.773438 1616.082031 L 333.597656 1612.496094 C 334.160156 1611.402344 334.726562 1610.3125 335.296875 1609.222656 L 337.648438 1604.816406 L 337.605469 1604.90625 C 335.289062 1609.710938 333.628906 1613.289062 333.671875 1613.199219 Z M 511.398438 2003.398438 L 457.816406 1994.546875 C 474.191406 1998.289062 492.050781 2001.238281 511.398438 2003.398438 Z M 310.976562 1935.535156 L 310.992188 1935.546875 Z M 509.503906 1916.507812 C 502.0625 1910.230469 497.144531 1904.226562 494.753906 1898.492188 C 489.464844 1887.195312 486.289062 1876.476562 485.226562 1866.335938 C 484.28125 1857.960938 485.550781 1849.066406 489.03125 1839.648438 C 490.910156 1835.191406 493.265625 1831.660156 496.097656 1829.054688 C 498.730469 1826.609375 500.4375 1826.417969 501.214844 1828.480469 C 502.015625 1830.667969 502.195312 1833.675781 501.75 1837.503906 C 501.609375 1838.949219 501.398438 1840.460938 501.121094 1842.035156 C 499.164062 1851.945312 498.132812 1857.589844 498.027344 1858.96875 C 497.359375 1863.808594 496.984375 1868.011719 496.910156 1871.585938 C 496.578125 1879.941406 497.476562 1887.5625 499.601562 1894.449219 Z M 916.464844 1907.703125 C 920.074219 1911.15625 922.433594 1915.199219 923.539062 1919.828125 C 924.042969 1922.050781 924.160156 1924.664062 923.894531 1927.679688 C 923.734375 1929.9375 923.160156 1932.121094 922.164062 1934.226562 Z M 728.117188 1795.636719 C 736.164062 1800.175781 741.683594 1811.628906 744.675781 1829.996094 C 746.441406 1844.140625 743.339844 1853.003906 735.371094 1856.582031 C 733.109375 1857.246094 731.402344 1856.144531 730.257812 1853.28125 C 725.476562 1839.261719 722.707031 1829.902344 721.945312 1825.203125 C 720.292969 1817.46875 719.507812 1811.023438 719.585938 1805.863281 C 719.472656 1802.359375 720.414062 1799.5625 722.410156 1797.46875 Z M 1117.949219 1738.261719 C 1122.71875 1740.347656 1126.75 1746.546875 1130.058594 1756.867188 C 1132.679688 1765.878906 1133.640625 1776.203125 1132.96875 1787.835938 C 1132.578125 1793.257812 1131.269531 1799.988281 1129.058594 1808.027344 C 1127.640625 1812.960938 1125.941406 1816.394531 1123.929688 1818.335938 C 1118.898438 1821.382812 1115.269531 1816.59375 1113.011719 1803.964844 Z M 502.03125 1705.925781 C 497.757812 1706.671875 493.035156 1703.578125 487.871094 1696.640625 C 483.949219 1690.863281 481.59375 1683.683594 480.8125 1675.113281 C 480.171875 1666.386719 482.085938 1658.308594 486.558594 1650.878906 C 488.6875 1647.554688 490.621094 1645.617188 492.359375 1645.054688 C 495.015625 1644.523438 496.855469 1645.351562 497.882812 1647.542969 C 498.355469 1648.449219 498.484375 1649.839844 498.261719 1651.710938 C 496.101562 1663.636719 494.875 1673.289062 494.582031 1680.671875 C 494.335938 1684.304688 494.941406 1688.554688 496.402344 1693.414062 Z M 1365.949219 1724.632812 C 1370.949219 1726.390625 1375.179688 1733.46875 1378.648438 1745.875 C 1380.851562 1755.425781 1381.558594 1764.835938 1380.800781 1774.105469 C 1379.800781 1780.410156 1378.628906 1782.464844 1377.308594 1780.269531 C 1376.53125 1779.992188 1376.148438 1775.222656 1376.171875 1765.964844 Z M 358.003906 1624.214844 L 358.09375 1624 L 351.148438 1621.082031 L 351.09375 1621.292969 L 357.894531 1624.449219 Z M 813.234375 1573.277344 C 819.917969 1585.800781 821.253906 1600.582031 817.25 1617.628906 C 816.0625 1622.066406 814.84375 1624.921875 813.597656 1626.1875 C 811.34375 1628.320312 809.328125 1628.738281 807.542969 1627.4375 C 805.6875 1625.828125 804.679688 1624.078125 804.515625 1622.191406 C 804.019531 1619.699219 803.933594 1615.09375 804.253906 1608.371094 Z M 1264.46875 1618.546875 C 1270.53125 1607.1875 1269.179688 1585.347656 1260.429688 1553.027344 C 1258 1542.714844 1252.019531 1525.351562 1242.46875 1500.941406 C 1241.179688 1496.75 1235.46875 1486.601562 1225.351562 1470.5 Z M 629.566406 1537.660156 C 635.28125 1535.730469 640.886719 1529.539062 646.386719 1519.089844 C 649.832031 1512.1875 651.695312 1503.054688 651.980469 1491.679688 C 652.078125 1480.21875 649.734375 1472.941406 644.953125 1469.871094 C 637.839844 1465.519531 632.761719 1468.019531 629.71875 1477.371094 C 629.015625 1479.699219 628.882812 1482.648438 629.320312 1486.210938 C 629.484375 1487.429688 629.707031 1488.671875 629.988281 1489.921875 C 631.84375 1497.5 632.824219 1501.71875 632.933594 1502.585938 C 633.640625 1506.441406 634.09375 1509.574219 634.300781 1511.988281 C 634.648438 1516.039062 634.472656 1519.703125 633.78125 1522.988281 Z M 1332.738281 1482.398438 C 1343.441406 1489.738281 1351.601562 1502.519531 1357.210938 1520.742188 C 1360.71875 1533.40625 1361.320312 1548.957031 1359.011719 1567.394531 C 1358.761719 1568.964844 1357.949219 1569.875 1356.578125 1570.128906 C 1355.398438 1570.171875 1354.550781 1569.308594 1354.039062 1567.535156 C 1353.238281 1566.511719 1352.160156 1558.925781 1350.800781 1544.773438 Z M 1030.789062 1420.699219 C 1027.601562 1427.039062 1025.949219 1433.421875 1025.839844 1439.851562 C 1025.5 1445.089844 1026.75 1453.789062 1029.578125 1465.960938 C 1032.351562 1477.609375 1036.628906 1487.390625 1042.398438 1495.308594 C 1044.949219 1498.53125 1047.210938 1500.398438 1049.171875 1500.917969 C 1051.75 1501.066406 1053.25 1499.851562 1053.648438 1497.261719 C 1054.039062 1495.261719 1053.558594 1492.328125 1052.21875 1488.460938 C 1052.089844 1487.488281 1049.140625 1480.421875 1043.371094 1467.25 C 1041.878906 1463.488281 1040.351562 1459.101562 1038.78125 1454.089844 C 1036.621094 1447.308594 1035.160156 1441.109375 1034.390625 1435.46875 Z M 876.902344 1327.789062 C 877.628906 1328.28125 878.371094 1328.808594 879.128906 1329.371094 C 883.890625 1332.910156 889.289062 1337.910156 895.316406 1344.359375 C 902.480469 1352.25 909.347656 1361.570312 915.914062 1372.328125 C 926.539062 1391.050781 931.085938 1400.820312 929.558594 1401.628906 C 911.863281 1373 892.210938 1352.851562 870.605469 1341.171875 C 864.957031 1338.070312 858.730469 1335.488281 851.929688 1333.441406 C 848.257812 1332.339844 844.421875 1331.378906 840.414062 1330.589844 L 849.210938 1327.800781 L 876.902344 1327.789062 C 869.210938 1322.601562 863.3125 1321.550781 859.214844 1324.628906 L 849.210938 1327.800781 L 817.945312 1327.808594 C 809.988281 1327.351562 801.527344 1327.351562 792.5625 1327.820312 L 817.945312 1327.808594 C 825.945312 1328.269531 833.4375 1329.191406 840.414062 1330.589844 L 789.429688 1346.75 L 788.183594 1347.078125 C 682.316406 1374.859375 586.753906 1435.671875 492.257812 1496.988281 L 477.035156 1506.867188 L 470.277344 1511.242188 C 430.367188 1537.054688 391.738281 1562.351562 370.46875 1599.285156 C 366.242188 1606.625 358.984375 1622.113281 358.003906 1624.214844 C 356.585938 1627.632812 338.742188 1670.832031 331.890625 1693.175781 C 320.753906 1729.476562 312.519531 1767.429688 315.949219 1802.617188 C 315.683594 1805.019531 315.402344 1807.898438 315.101562 1811.265625 L 320.34375 1826.675781 C 318.175781 1818.84375 316.746094 1810.808594 315.949219 1802.617188 C 316.449219 1798.117188 316.894531 1795.316406 317.28125 1794.222656 C 319.777344 1782.347656 323.511719 1770.179688 328.480469 1757.722656 L 335.414062 1741.242188 C 327.921875 1785.28125 329.777344 1822.273438 340.988281 1852.222656 C 348.28125 1870.765625 359.039062 1889.753906 373.261719 1909.183594 C 376.050781 1913.097656 380.636719 1918.816406 387.027344 1926.347656 L 396.199219 1936.035156 L 398.714844 1938.128906 C 400.539062 1939.628906 402.378906 1941.113281 404.234375 1942.578125 C 406.121094 1944.070312 408.023438 1945.539062 409.941406 1946.992188 C 412.175781 1948.683594 414.429688 1950.347656 416.703125 1951.988281 C 419.019531 1953.660156 421.359375 1955.304688 423.714844 1956.925781 C 426.136719 1958.59375 428.582031 1960.234375 431.042969 1961.847656 C 433.546875 1963.488281 436.070312 1965.101562 438.609375 1966.6875 C 440.925781 1968.128906 443.253906 1969.550781 445.59375 1970.949219 C 447.960938 1972.367188 450.34375 1973.757812 452.742188 1975.128906 L 455.386719 1976.632812 L 437.667969 1973.382812 C 444.910156 1974.773438 457.613281 1977.058594 475.78125 1980.234375 C 497.679688 1984.8125 512.777344 1987.828125 521.070312 1989.285156 C 532.042969 1991.292969 543.078125 1992.960938 554.179688 1994.28125 C 568.335938 1995.792969 581.121094 1996.429688 592.546875 1996.199219 C 603.546875 1996.09375 616.589844 1994.964844 631.683594 1992.808594 C 624.511719 1998.324219 608.605469 2002.53125 583.96875 2005.4375 C 574.34375 2006.519531 563.101562 2006.890625 550.246094 2006.550781 C 538.820312 2006.121094 527.09375 2005.203125 515.066406 2003.796875 C 513.839844 2003.667969 512.613281 2003.535156 511.398438 2003.398438 L 511.410156 2003.402344 L 515.355469 2004.964844 C 517.816406 2005.925781 520.285156 2006.867188 522.757812 2007.789062 C 525.214844 2008.707031 527.675781 2009.601562 530.148438 2010.476562 C 532.945312 2011.46875 535.75 2012.4375 538.5625 2013.378906 C 541.34375 2014.308594 544.132812 2015.210938 546.929688 2016.09375 C 549.929688 2017.035156 552.941406 2017.949219 555.957031 2018.835938 L 559.984375 2019.996094 C 560.617188 2020.175781 561.253906 2020.355469 561.890625 2020.535156 C 564.332031 2021.222656 566.777344 2021.902344 569.226562 2022.570312 C 575.472656 2024.273438 581.742188 2025.914062 588.023438 2027.484375 C 590.109375 2028.007812 592.199219 2028.519531 594.289062 2029.027344 L 597.429688 2029.785156 L 559.585938 2030.761719 C 612.234375 2030.539062 664.257812 2025.605469 715.660156 2015.964844 C 736.226562 2012.105469 754.257812 2007.808594 769.746094 2003.074219 C 777.492188 2000.703125 784.601562 1998.226562 791.074219 1995.636719 C 806.148438 1988.972656 814.433594 1984.84375 815.925781 1983.246094 L 817.632812 1982.199219 L 813.320312 1987.398438 C 810.035156 1990.832031 805.9375 1994.210938 801.027344 1997.53125 C 791.210938 2004.175781 778.152344 2010.589844 761.84375 2016.773438 C 753.691406 2019.867188 744.726562 2022.902344 734.949219 2025.882812 L 722.921875 2029.242188 C 710.734375 2032.832031 691.492188 2037.273438 665.195312 2042.574219 L 662.554688 2043.035156 L 632.488281 2047.804688 C 635.742188 2047.542969 645.761719 2045.953125 662.554688 2043.035156 L 662.746094 2043.003906 L 667.113281 2043.722656 C 670.035156 2044.195312 672.960938 2044.65625 675.886719 2045.105469 C 685.058594 2046.507812 694.253906 2047.785156 703.464844 2048.9375 C 707.199219 2049.40625 710.9375 2049.851562 714.675781 2050.277344 C 718.066406 2050.664062 721.460938 2051.03125 724.859375 2051.386719 C 726.773438 2051.585938 728.6875 2051.777344 730.605469 2051.96875 L 733.46875 2052.246094 L 700.457031 2057.8125 C 729.09375 2053.261719 752.878906 2048.859375 771.808594 2044.609375 C 788.121094 2041.460938 811.355469 2034.933594 841.511719 2025.03125 C 877.636719 2013.613281 920.890625 1991.445312 971.269531 1958.53125 L 974.507812 1956.550781 C 962.421875 1972.496094 943.558594 1988.707031 917.910156 2005.179688 C 895.226562 2018.957031 880.710938 2027.261719 874.367188 2030.085938 C 863.75 2035.480469 846.152344 2042.863281 821.570312 2052.242188 C 817.703125 2053.648438 813.84375 2055.007812 809.984375 2056.316406 C 795.121094 2059.402344 780.09375 2062.105469 764.90625 2064.417969 L 779.585938 2065.644531 C 789.699219 2062.871094 799.832031 2059.761719 809.984375 2056.316406 C 877.300781 2042.332031 941.421875 2020.410156 1002.359375 1990.539062 C 1038 1972.234375 1067.300781 1954.449219 1090.261719 1937.183594 C 1123.691406 1910.15625 1148.128906 1886.183594 1163.570312 1865.261719 L 1165.851562 1862.488281 C 1159.128906 1886.707031 1136.828125 1915.652344 1098.941406 1949.328125 C 1093.871094 1954.910156 1079.019531 1966.460938 1054.410156 1983.976562 C 1033.640625 1998.085938 1010.800781 2011.34375 985.898438 2023.746094 C 953.863281 2038.882812 934.019531 2047.703125 926.371094 2050.222656 C 921.601562 2051.75 917.023438 2053.191406 912.636719 2054.546875 L 874.03125 2065.375 C 884.636719 2062.820312 897.503906 2059.214844 912.636719 2054.546875 L 912.726562 2054.519531 L 916.746094 2054.242188 C 919.429688 2054.054688 922.113281 2053.855469 924.796875 2053.644531 C 930.425781 2053.207031 936.050781 2052.730469 941.671875 2052.210938 C 947.316406 2051.6875 952.960938 2051.125 958.597656 2050.519531 C 964.269531 2049.914062 969.9375 2049.265625 975.601562 2048.574219 C 981.273438 2047.882812 986.945312 2047.148438 992.609375 2046.371094 C 995.257812 2046.011719 997.90625 2045.640625 1000.550781 2045.257812 L 1004.511719 2044.683594 L 955.328125 2059.152344 C 989.839844 2050.15625 1021.378906 2039.703125 1049.949219 2027.800781 L 1097.910156 2006.777344 C 1122.039062 1995.375 1144.570312 1983.152344 1165.5 1970.113281 C 1228.289062 1930.984375 1276.71875 1884.488281 1310.769531 1830.613281 L 1316.121094 1823.027344 L 1303.921875 1851.0625 L 1288.589844 1878.007812 L 1270.140625 1903.859375 C 1243.46875 1937.609375 1208.480469 1968.449219 1165.191406 1996.382812 C 1152.160156 2004.789062 1138.378906 2012.933594 1123.839844 2020.8125 L 1094.019531 2036.105469 C 1104.289062 2031.121094 1114.230469 2026.027344 1123.839844 2020.8125 L 1123.949219 2020.761719 L 1127.589844 2019.828125 C 1130.019531 2019.199219 1132.441406 2018.566406 1134.871094 2017.921875 C 1141.25 2016.234375 1147.621094 2014.488281 1153.96875 2012.6875 C 1160.269531 2010.902344 1166.558594 2009.0625 1172.839844 2007.171875 C 1175.878906 2006.253906 1178.910156 2005.324219 1181.949219 2004.382812 L 1186.449219 2002.976562 L 1140.578125 2025.9375 C 1223.03125 1987.496094 1295.710938 1939.011719 1358.601562 1880.492188 L 1381.429688 1855.972656 L 1400.828125 1831.085938 L 1416.828125 1805.828125 L 1429.410156 1780.207031 L 1438.570312 1754.21875 L 1444.320312 1727.863281 L 1444.859375 1724.507812 L 1446.621094 1735.609375 C 1447.308594 1743.21875 1447.070312 1751.246094 1445.898438 1759.6875 C 1443.539062 1776.566406 1437.449219 1795.113281 1427.621094 1815.316406 C 1411.539062 1847.808594 1388.128906 1879.5 1357.390625 1910.382812 C 1340.609375 1927.507812 1322.371094 1943.703125 1302.671875 1958.976562 C 1296.351562 1961.898438 1290.050781 1964.679688 1283.769531 1967.316406 L 1292.898438 1966.390625 C 1296.191406 1963.941406 1299.449219 1961.472656 1302.671875 1958.976562 C 1420.96875 1904.273438 1544.109375 1800.484375 1548.738281 1680.667969 C 1550.710938 1629.726562 1533.480469 1575.265625 1504.199219 1528.828125 C 1504.519531 1547.257812 1503.398438 1555.441406 1500.839844 1553.375 C 1496.039062 1533.203125 1483.921875 1509.800781 1464.46875 1483.160156 C 1459.46875 1476.550781 1454.53125 1470.300781 1449.628906 1464.398438 C 1439.539062 1455.558594 1428.929688 1447.628906 1417.910156 1440.789062 C 1319.589844 1379.75 1201.980469 1341.328125 1081.851562 1327.878906 L 1080.441406 1327.71875 L 876.902344 1327.789062 "/>
<path fill-rule="nonzero" fill="rgb(0%, 0%, 0%)" fill-opacity="1" d="M 791.933594 1326.851562 L 887.933594 1316.851562 L 882.933594 1334.851562 Z M 791.933594 1326.851562 "/>
<path fill-rule="nonzero" fill="rgb(77.34375%, 58.006287%, 25.488281%)" fill-opacity="1" d="M 1955.878906 624.511719 L 1882.078125 489.03125 L 1797.21875 434.609375 C 1792.921875 430.5 1797.101562 427.53125 1809.761719 425.691406 C 1853.109375 418.449219 1925.328125 432.148438 2026.410156 466.78125 C 2098.28125 496.101562 2153.601562 548.269531 2192.359375 623.28125 C 2223.328125 678.929688 2238.109375 724.441406 2236.710938 759.789062 C 2236.980469 760.011719 2237.238281 760.238281 2237.488281 760.46875 C 2249.46875 772.03125 2245.941406 795.210938 2226.898438 829.988281 C 2225.75 833.328125 2224.429688 836.808594 2222.960938 840.429688 C 2218.949219 870.160156 2208.71875 898.710938 2192.269531 926.058594 L 2192.121094 926.300781 L 2194.300781 927.03125 C 2157.011719 1000.53125 2110.019531 1048.941406 2053.308594 1072.261719 C 2012.859375 1091.648438 1941.609375 1113.429688 1839.550781 1137.589844 C 1763.390625 1155.921875 1705.5 1162.960938 1665.890625 1158.730469 C 1660.308594 1156.191406 1660.621094 1152.828125 1666.828125 1148.660156 C 1720.570312 1125.371094 1756.441406 1106.519531 1774.449219 1092.128906 C 1796.21875 1076.210938 1817.238281 1057.179688 1837.519531 1035.039062 C 1851.238281 1029.410156 1888.089844 971.878906 1948.070312 862.480469 C 1950.691406 845.011719 1955.160156 817.101562 1961.480469 778.75 C 1963.761719 760.808594 1965.050781 743.679688 1965.359375 727.371094 C 1966.121094 693.21875 1962.960938 658.929688 1955.878906 624.511719 "/>
<path fill-rule="nonzero" fill="rgb(61.914062%, 43.138123%, 20.384216%)" fill-opacity="1" d="M 2241.421875 766.648438 L 2243.128906 755.070312 C 2243.429688 757.089844 2243 760.390625 2241.828125 764.980469 C 2241.691406 765.539062 2241.558594 766.101562 2241.421875 766.648438 L 2227.539062 860.738281 C 2224.210938 874.429688 2219.710938 884.609375 2214.019531 891.269531 C 2209.820312 895.441406 2206.339844 897.140625 2203.578125 896.378906 C 2204.179688 899.5 2204.011719 904.230469 2203.078125 910.570312 C 2201.421875 921.941406 2196.25 936.71875 2187.570312 954.921875 C 2167.210938 998.988281 2129.679688 1037.738281 2074.980469 1071.171875 C 2009.199219 1104.421875 1935.898438 1127.820312 1855.089844 1141.378906 C 1734.851562 1162.300781 1677.03125 1170.28125 1681.609375 1165.308594 C 1739.929688 1134.910156 1792.878906 1092.230469 1840.449219 1037.269531 L 1839.851562 1037.550781 C 1840.121094 1037.339844 1840.390625 1037.140625 1840.648438 1036.941406 L 1840.898438 1036.75 C 1846.050781 1030.78125 1851.148438 1024.671875 1856.179688 1018.410156 L 1951.121094 824.550781 C 1952.03125 834.828125 1949.421875 849.960938 1943.308594 869.960938 L 1901.179688 987.421875 C 1907.328125 981.808594 1912.820312 976.53125 1917.628906 971.570312 C 1952.960938 936.289062 1977.089844 907.878906 1990.011719 886.359375 C 1987.519531 897.839844 1980.679688 918.78125 1969.488281 949.191406 C 1965.261719 961.050781 1960.550781 971.421875 1955.371094 980.269531 C 1955.5 982.609375 1956.429688 983.039062 1958.171875 981.558594 C 1967.160156 974.140625 1989.039062 944.78125 2023.828125 893.46875 C 2020.148438 919.300781 2002.789062 963.71875 1971.75 1026.710938 C 1988.640625 1005.738281 2012.679688 966.320312 2043.859375 908.449219 C 2047.679688 917.859375 2036.691406 956.589844 2010.898438 1024.640625 C 2011.851562 1031.519531 2029.570312 1008.289062 2064.050781 954.960938 C 2058.601562 983.328125 2048.851562 1017.351562 2034.800781 1057.019531 C 2040.75 1055.660156 2056.640625 1036.511719 2082.441406 999.539062 C 2084.238281 996.230469 2086.941406 1000.488281 2090.53125 1012.339844 C 2091.628906 1013.488281 2093.191406 1013.828125 2095.210938 1013.351562 C 2098.039062 1013.648438 2106.691406 1006.441406 2121.160156 991.730469 C 2129.550781 984.109375 2143.371094 967.25 2162.609375 941.140625 C 2168.140625 931.378906 2174.320312 920.199219 2181.148438 907.609375 C 2188.421875 893.769531 2194.71875 875.371094 2200.058594 852.410156 C 2200.328125 852.421875 2200.589844 852.488281 2200.820312 852.609375 C 2201.660156 844.800781 2202.710938 835.371094 2203.96875 824.320312 C 2204.539062 818.828125 2204.589844 811.519531 2204.128906 802.390625 C 2204.261719 801.441406 2205.308594 804.839844 2207.28125 812.578125 L 2211.910156 839.578125 C 2212.679688 842.300781 2213.988281 842.578125 2215.839844 840.410156 C 2219.929688 835 2225.46875 821.539062 2232.460938 800.019531 C 2233.878906 796.238281 2236.871094 785.109375 2241.421875 766.648438 Z M 2085.011719 966 C 2084.878906 966.429688 2084.519531 967.101562 2083.941406 968.019531 L 2083.851562 968.148438 C 2077.511719 977.460938 2072.949219 984.488281 2070.179688 989.238281 C 2068.089844 992.890625 2067.429688 994.859375 2068.199219 995.128906 C 2069.609375 995.871094 2073.878906 992.820312 2081 985.980469 C 2085.5 981.320312 2089.109375 976.160156 2091.839844 970.511719 C 2096.761719 959.410156 2097.96875 950.460938 2095.46875 943.628906 Z M 2116.070312 938.128906 C 2120.308594 935.449219 2126.671875 921.660156 2135.148438 896.738281 C 2137.300781 890.628906 2139.429688 874.648438 2141.539062 848.789062 Z M 2198.421875 888.800781 C 2198.101562 889.980469 2197.75 891.191406 2197.378906 892.429688 L 2197.449219 892.328125 C 2198.058594 892.078125 2198.628906 891.929688 2199.148438 891.871094 C 2198.828125 891.070312 2198.589844 890.039062 2198.421875 888.800781 Z M 2038.261719 812.351562 C 2035.128906 823.058594 2028.019531 835.261719 2016.941406 848.929688 C 2011.441406 855.199219 2006.871094 859.308594 2003.25 861.269531 C 1998.789062 863.640625 1997.039062 862.859375 1998.011719 858.910156 C 1998.570312 856.808594 2001.179688 852.058594 2005.828125 844.660156 L 2034.53125 800.128906 C 2036.878906 796.480469 2039.648438 792.351562 2042.851562 787.738281 C 2045.449219 784.539062 2046.378906 785.070312 2045.640625 789.320312 Z M 2104.351562 727.019531 C 2107.109375 724.738281 2108.738281 718.25 2109.230469 707.539062 C 2109.398438 702.421875 2109.230469 697.75 2108.699219 693.53125 C 2108.339844 690.410156 2107.398438 687.03125 2105.871094 683.390625 Z M 2081.089844 581.230469 C 2082.660156 581.871094 2083.820312 585.808594 2084.558594 593.050781 C 2085.011719 597.980469 2084.769531 603.578125 2083.839844 609.851562 C 2082.898438 615.539062 2081.410156 619.539062 2079.378906 621.859375 C 2077.929688 623.339844 2076.578125 622.351562 2075.339844 618.898438 C 2074.53125 616.691406 2073.738281 612.050781 2072.96875 604.988281 C 2070.921875 586.300781 2070.011719 576.039062 2070.25 574.210938 C 2070.039062 563.988281 2071.191406 559.28125 2073.691406 560.078125 Z M 2000.308594 572.671875 C 2001.230469 574.101562 2001.839844 578.980469 2002.140625 587.300781 C 2002.390625 593.929688 2002.101562 599.488281 2001.261719 604.011719 C 2000.609375 608.179688 1999.550781 610.96875 1998.109375 612.371094 C 1996.601562 613.648438 1995.199219 612.921875 1993.890625 610.179688 C 1992.890625 608.511719 1990.671875 600.878906 1987.230469 587.308594 C 1985.878906 581.921875 1984.839844 576.300781 1984.121094 570.441406 C 1982.660156 554.988281 1983.089844 545 1985.390625 540.460938 L 2000.308594 572.671875 "/>
<path fill-rule="nonzero" fill="rgb(99.21875%, 86.326599%, 43.530273%)" fill-opacity="1" d="M 1617.609375 1140.429688 C 1589.839844 1149.851562 1562.679688 1143.851562 1536.140625 1122.421875 C 1473.421875 1065.160156 1436.308594 1000.539062 1424.800781 928.578125 C 1414.949219 881.320312 1422.519531 812.429688 1447.488281 721.921875 C 1464.890625 652.601562 1495.679688 588.308594 1539.859375 529.039062 C 1619.53125 430.75 1704.898438 396.359375 1795.988281 425.878906 C 1863.101562 471.148438 1910.539062 525.359375 1938.289062 588.519531 C 1948.410156 603.058594 1952.71875 626.640625 1951.210938 659.25 C 1953.789062 668.351562 1955.890625 678.230469 1957.511719 688.898438 L 1956.769531 804.191406 C 1963.03125 838.988281 1935.839844 898.410156 1875.179688 982.421875 C 1857.660156 1002.101562 1841.199219 1019.871094 1825.800781 1035.730469 C 1821.5 1042.28125 1816.429688 1049.640625 1810.609375 1057.808594 C 1801.539062 1070.980469 1790.460938 1082.609375 1777.351562 1092.691406 C 1759.890625 1105.769531 1744.21875 1114.46875 1730.320312 1118.789062 C 1716.210938 1127.628906 1704.140625 1132.769531 1694.128906 1134.210938 C 1666.769531 1141.738281 1641.261719 1143.820312 1617.609375 1140.429688 "/>
<path fill-rule="nonzero" fill="rgb(0%, 0%, 0%)" fill-opacity="1" d="M 1476.570312 601.191406 C 1476.648438 600.988281 1476.738281 600.800781 1476.839844 600.609375 C 1476.730469 600.828125 1497.921875 559.671875 1511.160156 540.230469 C 1535.308594 504.75 1566.730469 472.28125 1603.859375 449.578125 C 1655.929688 417.730469 1717.75 407.460938 1779.46875 407.460938 C 1825.101562 407.460938 1871.128906 413.078125 1913.859375 420.078125 C 1969.710938 429.230469 2028.648438 444.070312 2077.441406 476.300781 C 2152.859375 526.121094 2208.480469 607.988281 2238.980469 691.871094 C 2262.75 757.25 2249.441406 834.21875 2224.378906 896.410156 C 2199.171875 958.949219 2159.539062 1020.71875 2104.390625 1061.78125 C 2019.691406 1124.828125 1909.519531 1147.078125 1808.378906 1163.671875 C 1770.570312 1169.878906 1729.339844 1175.300781 1688.671875 1175.300781 C 1637.421875 1175.300781 1586.050781 1166.699219 1543.039062 1139.308594 C 1477.140625 1097.339844 1430.488281 1021.429688 1413.320312 946.28125 C 1399.988281 887.949219 1408.820312 826.101562 1420.890625 769.769531 C 1429.609375 729.078125 1441.441406 688.949219 1456.050781 650 C 1462.28125 633.390625 1476.5 601.328125 1476.570312 601.179688 L 1476.570312 601.191406 C 1476.511719 601.308594 1476.460938 601.429688 1476.410156 601.550781 Z M 1802.78125 429.570312 C 1815.921875 434.671875 1831.039062 442.851562 1848.148438 454.121094 C 1893.589844 490.679688 1923.96875 528.921875 1939.289062 568.851562 C 1953.511719 599.289062 1963.378906 632.570312 1968.898438 668.699219 C 1972.808594 686.988281 1975.078125 703.359375 1975.71875 717.820312 C 1978.191406 749.691406 1974.601562 787.160156 1964.960938 830.230469 C 1962.960938 840.300781 1959.128906 851.199219 1953.480469 862.949219 C 1949.03125 877.371094 1943.300781 890.800781 1936.269531 903.238281 C 1895.148438 976.5 1851.570312 1035.949219 1805.550781 1081.589844 C 1767.851562 1119.238281 1733.460938 1141.820312 1702.371094 1149.308594 C 1697.179688 1150.960938 1687.179688 1152.308594 1672.359375 1153.359375 C 1677.761719 1153.570312 1683.199219 1153.679688 1688.671875 1153.679688 C 1705.671875 1153.679688 1722.839844 1152.679688 1739.929688 1151.050781 C 1772.839844 1137.359375 1801.679688 1119.851562 1826.460938 1098.511719 C 1859.699219 1072.410156 1897.949219 1029.441406 1941.210938 969.601562 C 1932.078125 999.53125 1908.441406 1037.078125 1870.308594 1082.261719 C 1851.121094 1104.921875 1828.910156 1124.421875 1803.671875 1140.78125 C 1829.21875 1132.460938 1852.640625 1120.730469 1873.921875 1105.589844 C 1890.148438 1093.929688 1905.28125 1080.621094 1919.339844 1065.691406 C 1944.921875 1037.230469 1962.140625 1015.160156 1971.011719 999.480469 C 1947.160156 1054.078125 1909.308594 1098.53125 1857.460938 1132.820312 C 1928.050781 1111.75 1978.148438 1071.050781 2007.75 1010.71875 C 1989 1055.671875 1965.191406 1090.011719 1936.308594 1113.738281 C 1981.609375 1094.5 2011.941406 1072.238281 2027.308594 1046.941406 C 2015.839844 1068.929688 2003.621094 1085.890625 1990.648438 1097.839844 C 2026.859375 1084.320312 2060.988281 1067.121094 2091.46875 1044.429688 C 2130.589844 1015.320312 2161.828125 974.421875 2185.199219 929.78125 C 2186.691406 924 2188.210938 917.75 2189.78125 911.011719 C 2192.410156 901.558594 2196.671875 878.929688 2202.558594 843.109375 C 2203.128906 840.058594 2203.859375 837.691406 2204.75 835.988281 C 2208.808594 832.148438 2210.601562 838.121094 2210.109375 853.910156 C 2209.988281 861.640625 2209.648438 868.960938 2209.089844 875.878906 C 2229.089844 820.890625 2237.761719 758.21875 2220.679688 705.171875 C 2220.21875 713.121094 2219.601562 719.199219 2218.800781 723.429688 C 2217.53125 730.789062 2215.851562 737.921875 2213.769531 744.820312 C 2212.25 750.058594 2211.128906 752.128906 2210.398438 751.039062 C 2210.019531 750.511719 2209.871094 748.171875 2209.929688 744.03125 C 2210.789062 723.019531 2211.140625 711.96875 2210.980469 710.890625 C 2210.96875 705.390625 2210.78125 699.949219 2210.398438 694.589844 C 2210.011719 689.140625 2209.390625 684.140625 2208.550781 679.589844 C 2208.429688 678.558594 2207.609375 674.738281 2206.070312 668.128906 C 2175.269531 599.039062 2127.03125 534.96875 2065.519531 494.351562 C 2020.609375 464.679688 1965.339844 450.429688 1910.371094 441.421875 C 1875.609375 435.730469 1839.140625 431.039062 1802.78125 429.570312 Z M 1838.871094 471.800781 C 1830.710938 466.558594 1823.371094 462.371094 1816.839844 459.210938 C 1793.320312 448.109375 1771.640625 440.890625 1751.789062 437.558594 C 1737.628906 435.109375 1722.800781 435.308594 1707.300781 438.160156 C 1701.101562 438.550781 1677.539062 444.648438 1636.609375 456.480469 C 1629.25 459.941406 1622.089844 463.78125 1615.140625 468.03125 C 1581.121094 488.828125 1551.820312 518.941406 1529.03125 552.398438 C 1517.28125 569.660156 1498.070312 606.648438 1496.210938 610.238281 C 1494.789062 613.449219 1481.949219 642.5 1476.289062 657.601562 C 1462.050781 695.570312 1450.53125 734.671875 1442.039062 774.300781 C 1430.078125 830.101562 1422.191406 888.011719 1434.398438 941.460938 C 1438.46875 959.261719 1444.289062 977.058594 1451.699219 994.339844 C 1456.28125 1002.570312 1460.570312 1009.519531 1464.570312 1015.21875 C 1468.480469 1022.871094 1487.421875 1046.839844 1521.378906 1087.101562 C 1519.648438 1087.140625 1513.988281 1084.058594 1504.398438 1077.859375 C 1519.421875 1094.648438 1536.269531 1109.359375 1554.660156 1121.058594 C 1555.050781 1121.308594 1555.441406 1121.558594 1555.839844 1121.808594 C 1560.710938 1123.878906 1565.710938 1125.738281 1570.839844 1127.398438 C 1594.390625 1135.96875 1618.191406 1139.859375 1642.261719 1139.058594 C 1664.191406 1138.328125 1685.359375 1134.378906 1705.769531 1127.199219 C 1712.710938 1124.679688 1721.980469 1120.671875 1733.578125 1115.191406 C 1746.890625 1107.5 1759.398438 1098.261719 1771.101562 1087.449219 C 1793.21875 1073.53125 1830.828125 1031.640625 1883.921875 961.769531 C 1900.21875 930.898438 1913.640625 903.988281 1924.179688 881.03125 C 1928.371094 871.929688 1932.320312 862.949219 1936.03125 854.109375 C 1943.871094 822.199219 1948.988281 785.480469 1951.371094 743.941406 C 1953.488281 712.398438 1951.460938 680.699219 1945.269531 648.828125 C 1941.699219 631 1938.011719 616.371094 1934.210938 604.929688 C 1933.371094 600.820312 1926.421875 582.859375 1913.359375 551.050781 C 1898.089844 525.828125 1873.261719 499.410156 1838.871094 471.800781 Z M 1875.628906 936.480469 C 1866.921875 958.730469 1847.140625 986.191406 1816.300781 1018.839844 C 1789.351562 1047.929688 1765.871094 1067.910156 1745.878906 1078.789062 C 1685.398438 1112.21875 1630.679688 1123.019531 1581.699219 1111.191406 C 1617.519531 1114.171875 1663.328125 1101.511719 1719.121094 1073.191406 C 1758.839844 1054.121094 1801.519531 1019.238281 1847.171875 968.550781 Z M 2063.558594 997.371094 C 2071.199219 992.640625 2078.570312 984.53125 2085.671875 973.039062 C 2089.070312 966.609375 2091.949219 959.589844 2094.328125 951.960938 C 2095.769531 947.558594 2095.890625 944.269531 2094.691406 942.070312 Z M 2043.46875 791.070312 C 2046.96875 804.019531 2045.878906 816.359375 2040.210938 828.089844 C 2036.621094 835.539062 2031.261719 842.929688 2024.140625 850.269531 C 2013.960938 860.339844 2006.511719 866.179688 2001.78125 867.800781 C 1997.898438 868.878906 1996.640625 867.570312 1998.011719 863.878906 C 1999.109375 862.308594 2000.28125 860.851562 2001.519531 859.5 C 2008.730469 852.089844 2013.011719 847.5 2014.359375 845.738281 C 2014.699219 845.558594 2017.859375 841.191406 2023.828125 832.640625 Z M 1928.308594 681.78125 C 1928.230469 683.710938 1928.398438 687.671875 1928.46875 691.859375 C 1928.550781 696.039062 1928.539062 700.449219 1928.441406 705.078125 C 1928.339844 709.71875 1928.148438 714.578125 1927.921875 718.941406 C 1927.691406 723.300781 1927.449219 726.988281 1927.128906 730.648438 C 1926.808594 734.320312 1926.421875 737.960938 1925.960938 741.589844 C 1925.488281 745.210938 1924.980469 748.808594 1926.019531 755.058594 C 1927.070312 761.320312 1926.699219 770.238281 1926.128906 779.328125 C 1925.558594 788.421875 1924.71875 797.660156 1923.5 807.039062 C 1922.289062 816.421875 1919.949219 825.730469 1918.050781 832.769531 C 1916.148438 839.800781 1916.148438 839.800781 1917.421875 835.109375 C 1917.421875 835.109375 1919.949219 825.730469 1922.558594 816.539062 C 1925.171875 807.339844 1928.050781 798.339844 1930.628906 789.378906 C 1933.210938 780.421875 1935.46875 771.488281 1938.78125 762.75 C 1942.078125 754 1942.078125 749.941406 1941.980469 746.070312 C 1941.878906 742.191406 1941.660156 738.320312 1941.351562 734.449219 C 1941.050781 730.589844 1940.660156 726.730469 1940.179688 722.878906 C 1939.699219 719.03125 1938.929688 713.960938 1938.121094 709.128906 C 1937.308594 704.308594 1936.449219 699.71875 1935.558594 695.390625 C 1934.671875 691.050781 1933.730469 686.949219 1933.058594 685.011719 C 1932.078125 681.171875 1928.621094 683.671875 1928.308594 681.78125 Z M 2179.078125 704.019531 C 2180.480469 706.160156 2181.820312 708.738281 2183.089844 711.769531 L 2191.679688 733.769531 C 2193.761719 739.589844 2195.011719 744.710938 2195.441406 749.128906 C 2195.949219 754.800781 2195.730469 761.601562 2194.769531 769.539062 L 2191.300781 796.191406 C 2190.800781 799.128906 2189.988281 802.199219 2188.878906 805.398438 Z M 2074.011719 558.160156 C 2083.011719 562.519531 2088.390625 571.261719 2090.148438 584.410156 C 2091.359375 596.410156 2090.421875 607.699219 2087.339844 618.261719 C 2085.351562 624.449219 2082.828125 627.351562 2079.769531 626.960938 C 2078.660156 626.441406 2078.199219 625.601562 2078.398438 624.421875 C 2078.261719 623.710938 2078.910156 620.921875 2080.328125 616.050781 Z M 1986 544.960938 C 1993.179688 548.910156 1998.230469 553.03125 2001.160156 557.328125 C 2004.449219 562.660156 2007.351562 570.21875 2009.859375 580 C 2010.96875 587.210938 2010.398438 593.710938 2008.140625 599.511719 C 2004.988281 606.808594 2001.679688 610.75 1998.21875 611.339844 Z M 1496.210938 610.238281 L 1496.339844 609.949219 L 1496.488281 609.578125 L 1496.058594 610.519531 C 1496.070312 610.511719 1496.121094 610.410156 1496.210938 610.238281 "/>
</svg>
